<svg width="60" height="60" viewBox="0 0 60 60" fill="none" xmlns="http://www.w3.org/2000/svg">
<path d="M58.6608 1.39272C57.7876 0.505037 56.6208 0.0104904 55.3757 0.000166514L55.3365 0C52.7875 0 50.6964 2.0741 50.6755 4.62343C50.6653 5.86862 51.1404 7.04338 52.0137 7.93106C52.8871 8.81875 54.0537 9.3133 55.2989 9.32362L55.338 9.32379C57.887 9.32379 59.9781 7.24969 59.9991 4.70036C60.0093 3.45517 59.534 2.28041 58.6608 1.39272ZM55.3379 7.60153L55.313 7.60137C54.5279 7.59487 53.7923 7.28299 53.2418 6.72334C52.6911 6.16352 52.3914 5.42286 52.3979 4.63775C52.411 3.03022 53.7293 1.72242 55.3365 1.72242L55.3613 1.72259C56.1464 1.72908 56.8821 2.04096 57.4326 2.60062C57.9833 3.16044 58.283 3.90109 58.2765 4.6862C58.2634 6.29373 56.9451 7.60153 55.3379 7.60153Z" fill="#8992A4"/>
<path d="M4.70041 25.3383L4.66128 25.3381C2.11212 25.3381 0.0212021 27.4122 0.000221333 29.9617C-0.020926 32.532 2.05301 34.6406 4.62349 34.6619H4.66245C7.21161 34.6619 9.3027 32.5878 9.32368 30.0385C9.34483 27.468 7.27089 25.3594 4.70041 25.3383ZM4.66245 32.9395L4.63764 32.9393C3.01679 32.926 1.70899 31.5966 1.72231 29.9757C1.73563 28.3682 3.05392 27.0604 4.66112 27.0604H4.68593C6.30678 27.0737 7.61458 28.4033 7.60126 30.0242C7.5881 31.6317 6.26981 32.9395 4.66245 32.9395Z" fill="#8992A4"/>
<path d="M22.2434 7.79484L22.2043 7.79468C19.6551 7.79468 17.5641 9.86878 17.5433 12.4181C17.5221 14.9886 19.596 17.0971 22.1665 17.1183L22.2056 17.1185C24.7546 17.1185 26.8457 15.0444 26.8667 12.495C26.8878 9.92439 24.8139 7.81582 22.2434 7.79484ZM22.2055 15.3962L22.1807 15.396C20.5598 15.3827 19.252 14.0531 19.2653 12.4324C19.2787 10.8249 20.597 9.5171 22.2041 9.5171L22.229 9.51726C23.8498 9.53058 25.1576 10.8602 25.1443 12.4809C25.1311 14.0884 23.8128 15.3962 22.2055 15.3962Z" fill="#8992A4"/>
<path d="M34.9125 20.4639L34.8734 20.4637C32.3242 20.4637 30.2333 22.5378 30.2123 25.0872C30.1912 27.6577 32.2653 29.7662 34.8357 29.7874L34.8747 29.7875C37.4237 29.7875 39.5148 27.7134 39.5358 25.1641C39.5569 22.5935 37.4828 20.4851 34.9125 20.4639ZM34.8745 28.0653L34.8497 28.0651C33.2289 28.0518 31.9211 26.7222 31.9344 25.1015C31.9476 23.494 33.2659 22.1862 34.873 22.1862L34.8979 22.1863C36.5187 22.1997 37.8263 23.5293 37.813 25.1499C37.8 26.7575 36.4817 28.0653 34.8745 28.0653Z" fill="#8992A4"/>
<path d="M52.0179 6.72039L36.9485 21.8281L38.1679 23.0444L53.2372 7.93665L52.0179 6.72039Z" fill="#8992A4"/>
<path d="M25.5011 14.5365L24.2833 15.7543L31.5826 23.0536L32.8004 21.8358L25.5011 14.5365Z" fill="#8992A4"/>
<path d="M18.9086 14.5352L6.74005 26.7037L7.95786 27.9215L20.1264 15.753L18.9086 14.5352Z" fill="#8992A4"/>
<path d="M49.4095 17.7367V59.9999H60.0002V17.7367H49.4095ZM51.132 58.2775L51.1318 19.4589H58.2779V58.2775H51.132Z" fill="#8992A4"/>
<path d="M32.9391 35.4733V59.9999H43.5298V35.4733H32.9391ZM41.8077 58.2775H34.6616V37.1957H41.8077V58.2775Z" fill="#8992A4"/>
<path d="M16.4694 34.2064V59.9999H27.0601V34.2064H16.4694ZM25.338 58.2775H18.1918V35.9288H25.338V58.2775Z" fill="#8992A4"/>
<path d="M0 40.541V60H10.5906L10.5908 40.541H0ZM8.86837 58.2776H1.72225V42.2631H8.86837C8.86837 42.2631 8.86837 58.2776 8.86837 58.2776Z" fill="#8992A4"/>
</svg>
