<svg width="12" height="12" viewBox="0 0 12 12" fill="none" xmlns="http://www.w3.org/2000/svg">
<path d="M4.43474 0H0.782337C0.350857 0 0 0.351142 0 0.782604V4.43479C0 4.86627 0.351138 5.21739 0.782595 5.21739H4.43474C4.86622 5.21739 5.21733 4.86625 5.21733 4.43479V0.782604C5.21736 0.351142 4.86622 0 4.43474 0ZM4.69562 4.43479C4.69562 4.57853 4.57848 4.69565 4.43476 4.69565H0.782595C0.638854 4.69565 0.521738 4.57851 0.521738 4.43479V0.782604C0.521738 0.638861 0.638596 0.521744 0.782337 0.521744H4.43474C4.57848 0.521744 4.69559 0.638885 4.69559 0.782604V4.43479H4.69562Z" fill="#8992A4"/>
<path d="M11.2174 0H7.5653C7.13383 0 6.78271 0.351142 6.78271 0.782604V4.43479C6.78271 4.86627 7.13385 5.21739 7.5653 5.21739H11.2174C11.6489 5.21739 12 4.86625 12 4.43479V0.782604C12 0.351142 11.6489 0 11.2174 0ZM11.4783 4.43479C11.4783 4.57853 11.3614 4.69565 11.2174 4.69565H7.5653C7.42131 4.69565 7.30445 4.57851 7.30445 4.43479V0.782604C7.30445 0.638861 7.42131 0.521744 7.5653 0.521744H11.2174C11.3614 0.521744 11.4783 0.638885 11.4783 0.782604V4.43479Z" fill="#8992A4"/>
<path d="M4.43474 6.78262H0.782337C0.350857 6.78262 0 7.13376 0 7.56525V11.2174C0 11.6489 0.351138 12 0.782595 12H4.43474C4.86622 12 5.21733 11.6489 5.21733 11.2174V7.56525C5.21736 7.13376 4.86622 6.78262 4.43474 6.78262ZM4.69562 11.2174C4.69562 11.3614 4.57848 11.4783 4.43476 11.4783H0.782595C0.638854 11.4783 0.521738 11.3614 0.521738 11.2174V7.56525C0.521738 7.42125 0.638596 7.30439 0.782337 7.30439H4.43474C4.57848 7.30439 4.69559 7.42125 4.69559 7.56525V11.2174H4.69562Z" fill="#8992A4"/>
<path d="M11.2174 6.78262H7.5653C7.13383 6.78262 6.78271 7.13377 6.78271 7.56523V11.2174C6.78271 11.6489 7.13385 12 7.5653 12H11.2174C11.6489 12 12 11.6489 12 11.2174V7.56525C12 7.13376 11.6489 6.78262 11.2174 6.78262ZM11.4783 11.2174C11.4783 11.3614 11.3614 11.4783 11.2174 11.4783H7.5653C7.42131 11.4783 7.30445 11.3614 7.30445 11.2174V7.56525C7.30445 7.42125 7.42131 7.30439 7.5653 7.30439H11.2174C11.3614 7.30439 11.4783 7.42125 11.4783 7.56525V11.2174Z" fill="#8992A4"/>
</svg>
