<svg width="25" height="25" viewBox="0 0 25 25" fill="none" xmlns="http://www.w3.org/2000/svg">
<circle cx="12.5" cy="12.5" r="12.5" fill="#32EA51"/>
<path d="M16.9333 14.1324C16.4634 13.6686 15.8769 13.6686 15.41 14.1324C15.0539 14.4855 14.6978 14.8387 14.3477 15.1978C14.2519 15.2965 14.1711 15.3174 14.0544 15.2516C13.824 15.1259 13.5786 15.0242 13.3572 14.8865C12.3247 14.2372 11.4599 13.4023 10.6938 12.4626C10.3137 11.9958 9.97556 11.4961 9.73915 10.9335C9.69127 10.8198 9.70025 10.7449 9.79301 10.6522C10.1491 10.308 10.4963 9.95493 10.8464 9.60182C11.3342 9.11105 11.3342 8.5365 10.8434 8.04274C10.5651 7.76145 10.2868 7.48614 10.0085 7.20485C9.72119 6.91757 9.4369 6.6273 9.14662 6.34301C8.67679 5.88516 8.09025 5.88516 7.62341 6.34601C7.2643 6.69912 6.92016 7.06121 6.55507 7.40834C6.21691 7.72853 6.04633 8.12054 6.01042 8.57839C5.95356 9.32352 6.13611 10.0268 6.39347 10.712C6.92016 12.1305 7.72216 13.3903 8.69475 14.5454C10.0085 16.1075 11.5766 17.3434 13.411 18.2351C14.237 18.6361 15.0928 18.9443 16.0235 18.9952C16.6639 19.0311 17.2205 18.8695 17.6664 18.3698C17.9717 18.0286 18.3158 17.7174 18.639 17.3912C19.1178 16.9065 19.1208 16.3199 18.645 15.8411C18.0764 15.2696 17.5048 14.701 16.9333 14.1324Z" fill="white"/>
</svg>
