<svg width="33" height="32" viewBox="0 0 33 32" fill="none" xmlns="http://www.w3.org/2000/svg">
<path d="M13.8571 14.0541H14.4112V13.5V7.5V6.94589H13.8571H7.57143H7.01731V7.5V13.5V14.0541H7.57143H13.8571ZM13.8571 26.0541H14.4112V25.5V19.5V18.9459H13.8571H7.57143H7.01731V19.5V25.5V26.0541H7.57143H13.8571ZM26.4286 26.0541H26.9827V25.5V19.5V18.9459H26.4286H20.1429H19.5887V19.5V25.5V26.0541H20.1429H26.4286ZM16.9427 11.5992L16.5228 12L16.9427 12.4008L21.3316 16.5903L21.7142 16.9555L22.0968 16.5903L26.4858 12.4008L26.9057 12L26.4858 11.5992L22.0968 7.40971L21.7142 7.0445L21.3316 7.40971L16.9427 11.5992ZM6.78571 6.55411H14.6428C14.7957 6.55411 14.8744 6.66549 14.8744 6.75V12V14.25C14.8744 14.3345 14.7957 14.4459 14.6428 14.4459H6.78571C6.63288 14.4459 6.55411 14.3345 6.55411 14.25V6.75C6.55411 6.66549 6.63288 6.55411 6.78571 6.55411ZM6.78571 18.5541H14.6428C14.7957 18.5541 14.8744 18.6655 14.8744 18.75V26.25C14.8744 26.3345 14.7957 26.4459 14.6428 26.4459H6.78571C6.63288 26.4459 6.55411 26.3345 6.55411 26.25V18.75C6.55411 18.6655 6.63288 18.5541 6.78571 18.5541ZM21.7143 18.5541H27.2143C27.3671 18.5541 27.4459 18.6655 27.4459 18.75V26.25C27.4459 26.3345 27.3671 26.4459 27.2143 26.4459H19.3571C19.2043 26.4459 19.1255 26.3345 19.1255 26.25V18.75C19.1255 18.6655 19.2043 18.5541 19.3571 18.5541H21.7143ZM27.3872 11.8705C27.4654 11.9452 27.4654 12.0548 27.3872 12.1294L21.8872 17.3794C21.8433 17.4213 21.7821 17.4459 21.7143 17.4459C21.6464 17.4459 21.5851 17.4213 21.5413 17.3794L16.0413 12.1294C15.9988 12.0889 15.9827 12.0425 15.9827 12C15.9827 11.9575 15.9988 11.9111 16.0413 11.8705L21.5413 6.62054C21.6341 6.53197 21.7944 6.53197 21.8872 6.62054L27.3872 11.8705Z" fill="#8992A4" stroke="#02B875" stroke-width="1.10823"/>
</svg>
