<svg width="8" height="9" viewBox="0 0 8 9" fill="none" xmlns="http://www.w3.org/2000/svg">
<path fill-rule="evenodd" clip-rule="evenodd" d="M2.04187 0.82773C2.5612 0.297743 3.26556 0 4 0C4.73444 0 5.4388 0.297743 5.95813 0.82773C6.47746 1.35772 6.76921 2.07653 6.76921 2.82605C6.76921 4.24514 7.06677 5.13439 7.34702 5.65873C7.48758 5.9217 7.62545 6.09607 7.72335 6.20153C7.77238 6.25434 7.81159 6.2901 7.83638 6.31118C7.84878 6.32172 7.85758 6.3286 7.8622 6.33212L7.86574 6.33476C7.9766 6.41196 8.02574 6.55376 7.98677 6.6851C7.94748 6.81754 7.82787 6.90811 7.69229 6.90811H0.307714C0.172125 6.90811 0.0525179 6.81754 0.0132263 6.6851C-0.0257412 6.55376 0.023398 6.41196 0.13426 6.33475L0.137801 6.33212C0.142423 6.3286 0.151222 6.32172 0.16362 6.31118C0.188408 6.2901 0.227622 6.25434 0.276652 6.20153C0.374553 6.09607 0.512424 5.9217 0.652975 5.65873C0.933228 5.13439 1.23079 4.24514 1.23079 2.82605C1.23079 2.07653 1.52254 1.35772 2.04187 0.82773ZM1.00097 6.2801H6.99903C6.93606 6.18653 6.87122 6.08003 6.80678 5.95946C6.47166 5.33245 6.15383 4.33767 6.15383 2.82605C6.15383 2.24309 5.92691 1.68401 5.52299 1.2718C5.11907 0.859589 4.57123 0.62801 4 0.62801C3.42877 0.62801 2.88093 0.859589 2.47701 1.2718C2.07309 1.68401 1.84617 2.24309 1.84617 2.82605C1.84617 4.33767 1.52834 5.33245 1.19322 5.95946C1.12877 6.08003 1.06394 6.18653 1.00097 6.2801Z" fill="#8992A4"/>
<path fill-rule="evenodd" clip-rule="evenodd" d="M3.13588 7.99719C3.28287 7.91017 3.47115 7.96124 3.55642 8.11125C3.6015 8.19055 3.66621 8.25638 3.74406 8.30214C3.8219 8.3479 3.91017 8.37199 4.00001 8.37199C4.08985 8.37199 4.17811 8.3479 4.25596 8.30214C4.33381 8.25638 4.39852 8.19055 4.4436 8.11125C4.52886 7.96124 4.71715 7.91017 4.86414 7.99719C5.01113 8.08421 5.06117 8.27636 4.9759 8.42636C4.87673 8.60084 4.73438 8.74566 4.56311 8.84634C4.39184 8.94701 4.19766 9 4.00001 9C3.80236 9 3.60818 8.94701 3.43691 8.84634C3.26564 8.74566 3.12329 8.60084 3.02412 8.42636C2.93885 8.27636 2.98889 8.08421 3.13588 7.99719Z" fill="#8992A4"/>
</svg>
