<svg width="23" height="24" viewBox="0 0 23 24" fill="none" xmlns="http://www.w3.org/2000/svg">
<path d="M7.56887 11.4575L6.84924 10.249L14.8995 5.41211L15.6191 6.62059L7.56887 11.4575Z" fill="#0095FF"/>
<path d="M14.8254 18.8239L7.06836 14.8597L7.70281 13.6045L15.4599 17.5687L14.8254 18.8239Z" fill="#0095FF"/>
<path d="M18.2812 0C15.9609 0 14.0625 1.89839 14.0625 4.21875C14.0625 6.53902 15.9609 8.4375 18.2812 8.4375C20.6016 8.4375 22.5 6.53902 22.5 4.21875C22.5 1.89839 20.6016 0 18.2812 0Z" fill="#00ABE9"/>
<path d="M18.2812 15.5625C15.9609 15.5625 14.0625 17.4609 14.0625 19.7812C14.0625 22.1015 15.9609 24 18.2812 24C20.6016 24 22.5 22.1015 22.5 19.7812C22.5 17.4609 20.6016 15.5625 18.2812 15.5625Z" fill="#00ABE9"/>
<path d="M4.21875 8.48438C1.89839 8.48438 0 10.3828 0 12.7031C0 15.0234 1.89839 16.9219 4.21875 16.9219C6.53911 16.9219 8.4375 15.0234 8.4375 12.7031C8.4375 10.3828 6.53911 8.48438 4.21875 8.48438Z" fill="#00ABE9"/>
<path d="M22.5 19.7812C22.5 22.1015 20.6016 24 18.2812 24V15.5625C20.6016 15.5625 22.5 17.4609 22.5 19.7812Z" fill="#0095FF"/>
<path d="M18.2812 8.4375V0C20.6016 0 22.5 1.89839 22.5 4.21875C22.5 6.53902 20.6016 8.4375 18.2812 8.4375Z" fill="#0095FF"/>
<path d="M8.4375 12.7031C8.4375 15.0234 6.53911 16.9219 4.21875 16.9219V8.48438C6.53911 8.48438 8.4375 10.3828 8.4375 12.7031Z" fill="#0095FF"/>
</svg>
